<svg xmlns="http://www.w3.org/2000/svg" xmlns:xlink="http://www.w3.org/1999/xlink" width="500" zoomAndPan="magnify" viewBox="0 0 375 374.999991" height="500" preserveAspectRatio="xMidYMid meet" version="1.2"><defs><clipPath id="e7b4b3ee2b"><path d="M 69 67.300781 L 309 67.300781 L 309 307 L 69 307 Z M 69 67.300781 "/></clipPath></defs><g id="ac72cc386d"><path style=" stroke:none;fill-rule:evenodd;fill:#9333ea;fill-opacity:1;" d="M 256.496094 184.527344 L 256.496094 186.238281 C 256.496094 186.6875 256.410156 187.117188 256.238281 187.53125 C 256.066406 187.945312 255.824219 188.3125 255.507812 188.628906 C 255.1875 188.945312 254.824219 189.191406 254.410156 189.363281 C 253.996094 189.535156 253.5625 189.621094 253.113281 189.621094 L 192.792969 189.621094 C 192.347656 189.621094 191.914062 189.535156 191.5 189.363281 C 191.085938 189.191406 190.71875 188.945312 190.402344 188.628906 C 190.085938 188.3125 189.839844 187.945312 189.667969 187.53125 C 189.5 187.117188 189.414062 186.6875 189.414062 186.238281 L 189.414062 184.527344 C 189.414062 184.078125 189.5 183.648438 189.667969 183.234375 C 189.839844 182.820312 190.085938 182.453125 190.402344 182.136719 C 190.71875 181.820312 191.085938 181.574219 191.5 181.402344 C 191.914062 181.230469 192.347656 181.144531 192.792969 181.144531 L 253.113281 181.144531 C 253.5625 181.144531 253.996094 181.230469 254.410156 181.402344 C 254.824219 181.574219 255.1875 181.820312 255.507812 182.136719 C 255.824219 182.453125 256.066406 182.820312 256.238281 183.234375 C 256.410156 183.648438 256.496094 184.078125 256.496094 184.527344 Z M 256.496094 184.527344 "/><g clip-rule="nonzero" clip-path="url(#e7b4b3ee2b)"><path style=" stroke:none;fill-rule:evenodd;fill:#9333ea;fill-opacity:1;" d="M 196.148438 67.292969 L 175.648438 67.839844 C 173.761719 68.050781 171.875 68.3125 170 68.613281 C 168.121094 68.917969 166.253906 69.265625 164.390625 69.65625 C 162.53125 70.050781 160.679688 70.488281 158.839844 70.96875 C 157 71.449219 155.171875 71.972656 153.355469 72.542969 C 151.542969 73.109375 149.742188 73.722656 147.957031 74.375 C 146.171875 75.03125 144.402344 75.726562 142.648438 76.464844 C 140.894531 77.203125 139.160156 77.984375 137.445312 78.808594 C 135.730469 79.628906 134.035156 80.492188 132.363281 81.394531 C 130.6875 82.296875 129.035156 83.238281 127.40625 84.21875 C 125.777344 85.199219 124.171875 86.21875 122.59375 87.277344 C 121.011719 88.335938 119.457031 89.429688 117.929688 90.5625 C 116.402344 91.695312 114.902344 92.863281 113.429688 94.066406 C 111.957031 95.269531 110.515625 96.507812 109.101562 97.78125 C 107.6875 99.054688 106.304688 100.359375 104.953125 101.699219 C 103.605469 103.039062 102.285156 104.410156 101 105.808594 C 99.714844 107.210938 98.464844 108.644531 97.246094 110.105469 C 96.03125 111.566406 94.847656 113.054688 93.703125 114.574219 C 92.554688 116.09375 91.445312 117.636719 90.375 119.207031 C 89.300781 120.777344 88.269531 122.375 87.273438 123.992188 C 86.277344 125.613281 85.320312 127.257812 84.402344 128.921875 C 83.484375 130.589844 82.605469 132.277344 81.769531 133.984375 C 80.933594 135.691406 80.136719 137.417969 79.382812 139.164062 C 78.628906 140.910156 77.914062 142.671875 77.246094 144.453125 C 76.574219 146.234375 75.949219 148.027344 75.363281 149.835938 C 74.777344 151.648438 74.238281 153.46875 73.738281 155.304688 C 73.242188 157.140625 72.789062 158.988281 72.378906 160.84375 C 71.96875 162.703125 71.605469 164.570312 71.285156 166.441406 C 70.964844 168.316406 70.6875 170.199219 70.457031 172.085938 C 70.226562 173.976562 70.042969 175.867188 69.902344 177.765625 C 69.761719 179.660156 69.667969 181.558594 69.617188 183.460938 C 69.570312 185.363281 69.566406 187.261719 69.605469 189.164062 C 69.648438 191.066406 69.734375 192.964844 69.867188 194.863281 C 70 196.761719 70.175781 198.652344 70.398438 200.542969 C 70.621094 202.429688 70.886719 204.3125 71.199219 206.191406 C 71.511719 208.066406 71.871094 209.933594 72.273438 211.792969 C 72.671875 213.652344 73.121094 215.5 73.609375 217.335938 C 74.097656 219.175781 74.632812 221 75.210938 222.8125 C 75.785156 224.625 76.40625 226.421875 77.070312 228.203125 C 77.730469 229.988281 78.4375 231.753906 79.183594 233.503906 C 79.929688 235.25 80.71875 236.980469 81.550781 238.691406 C 82.378906 240.402344 83.25 242.09375 84.160156 243.765625 C 85.070312 245.433594 86.019531 247.082031 87.007812 248.707031 C 88 250.332031 89.027344 251.929688 90.089844 253.503906 C 91.15625 255.082031 92.261719 256.628906 93.398438 258.152344 C 94.539062 259.675781 95.714844 261.171875 96.925781 262.636719 C 98.136719 264.101562 99.382812 265.539062 100.660156 266.949219 C 101.941406 268.355469 103.253906 269.730469 104.597656 271.074219 C 105.941406 272.417969 107.320312 273.730469 108.726562 275.007812 C 110.136719 276.289062 111.574219 277.53125 113.039062 278.742188 C 114.507812 279.953125 116.003906 281.128906 117.527344 282.265625 C 119.050781 283.40625 120.597656 284.507812 122.175781 285.570312 C 123.75 286.636719 125.351562 287.660156 126.976562 288.648438 C 128.601562 289.636719 130.25 290.585938 131.917969 291.496094 C 133.589844 292.40625 135.28125 293.277344 136.992188 294.105469 C 138.703125 294.933594 140.433594 295.71875 142.183594 296.464844 C 143.933594 297.214844 145.699219 297.917969 147.484375 298.578125 C 149.265625 299.242188 151.066406 299.859375 152.878906 300.433594 C 154.691406 301.011719 156.515625 301.542969 158.351562 302.03125 C 160.191406 302.519531 162.039062 302.964844 163.898438 303.367188 C 165.757812 303.765625 167.625 304.121094 169.503906 304.433594 C 171.378906 304.746094 173.261719 305.011719 175.148438 305.234375 C 177.039062 305.453125 178.933594 305.628906 180.828125 305.761719 C 182.726562 305.894531 184.625 305.976562 186.527344 306.019531 C 188.429688 306.058594 190.332031 306.054688 192.230469 306.003906 C 194.132812 305.953125 196.03125 305.855469 197.929688 305.714844 C 199.824219 305.574219 201.71875 305.386719 203.605469 305.15625 C 205.492188 304.925781 207.375 304.648438 209.25 304.328125 C 211.125 304.007812 212.988281 303.640625 214.847656 303.230469 C 216.703125 302.820312 218.550781 302.363281 220.386719 301.867188 C 222.21875 301.367188 224.042969 300.824219 225.851562 300.238281 C 227.660156 299.652344 229.457031 299.023438 231.234375 298.355469 C 233.015625 297.683594 234.777344 296.96875 236.523438 296.214844 C 238.269531 295.457031 239.996094 294.660156 241.703125 293.824219 C 243.410156 292.984375 245.097656 292.105469 246.761719 291.1875 C 248.425781 290.269531 250.070312 289.3125 251.6875 288.316406 C 253.308594 287.320312 254.902344 286.285156 256.472656 285.210938 C 258.042969 284.136719 259.585938 283.027344 261.105469 281.878906 C 262.621094 280.734375 264.109375 279.550781 265.570312 278.332031 C 267.03125 277.117188 268.464844 275.863281 269.863281 274.578125 C 271.265625 273.289062 272.636719 271.972656 273.972656 270.621094 C 275.3125 269.269531 276.617188 267.886719 277.886719 266.472656 C 279.160156 265.058594 280.398438 263.613281 281.601562 262.140625 C 282.804688 260.667969 283.96875 259.167969 285.101562 257.636719 C 286.234375 256.109375 287.328125 254.554688 288.382812 252.972656 C 289.441406 251.394531 290.460938 249.789062 291.441406 248.15625 C 292.421875 246.527344 293.363281 244.875 294.265625 243.199219 C 295.164062 241.527344 296.027344 239.832031 296.847656 238.117188 C 297.667969 236.398438 298.445312 234.664062 299.183594 232.914062 C 299.921875 231.160156 300.617188 229.390625 301.269531 227.601562 C 301.925781 225.816406 302.535156 224.015625 303.101562 222.203125 C 303.667969 220.386719 304.191406 218.558594 304.671875 216.71875 C 305.152344 214.878906 305.589844 213.027344 305.980469 211.164062 C 306.371094 209.304688 306.71875 207.433594 307.019531 205.558594 C 307.324219 203.679688 307.582031 201.796875 307.792969 199.90625 C 308.003906 198.015625 308.171875 196.121094 308.292969 194.222656 C 308.417969 192.324219 308.492188 190.425781 308.523438 188.523438 C 308.554688 186.621094 308.542969 184.722656 308.480469 182.820312 C 308.421875 180.917969 308.316406 179.019531 308.167969 177.125 C 308.015625 175.230469 307.820312 173.335938 307.582031 171.449219 C 307.339844 169.5625 307.054688 167.683594 306.722656 165.8125 C 306.394531 163.9375 306.019531 162.074219 305.601562 160.21875 C 305.179688 158.363281 304.71875 156.519531 304.210938 154.6875 C 303.703125 152.855469 303.152344 151.035156 302.558594 149.226562 C 301.960938 147.421875 301.324219 145.628906 300.644531 143.855469 C 299.964844 142.078125 299.242188 140.320312 298.480469 138.578125 C 297.714844 136.835938 296.910156 135.113281 296.066406 133.410156 C 295.21875 131.707031 294.332031 130.023438 293.40625 128.363281 C 292.480469 126.703125 291.515625 125.0625 290.507812 123.449219 C 289.503906 121.832031 288.460938 120.242188 287.382812 118.679688 C 286.300781 117.113281 285.183594 115.574219 284.027344 114.0625 C 282.875 112.550781 281.6875 111.070312 280.460938 109.613281 C 279.234375 108.160156 277.976562 106.734375 276.683594 105.339844 C 275.390625 103.945312 274.066406 102.582031 272.707031 101.25 C 271.347656 99.917969 269.960938 98.621094 268.539062 97.355469 C 267.121094 96.089844 265.671875 94.859375 264.191406 93.664062 C 262.714844 92.46875 261.207031 91.308594 259.671875 90.183594 C 258.136719 89.058594 256.578125 87.972656 254.992188 86.921875 C 253.40625 85.871094 251.796875 84.863281 250.160156 83.890625 C 248.527344 82.917969 246.871094 81.984375 245.191406 81.089844 C 243.511719 80.195312 241.8125 79.34375 240.09375 78.53125 C 238.375 77.71875 236.636719 76.949219 234.878906 76.21875 C 233.121094 75.488281 231.351562 74.800781 229.558594 74.15625 C 227.769531 73.511719 225.96875 72.910156 224.148438 72.351562 C 222.332031 71.792969 220.5 71.28125 218.660156 70.808594 C 216.816406 70.335938 214.964844 69.910156 213.101562 69.527344 C 211.238281 69.144531 209.367188 68.808594 207.488281 68.511719 C 205.609375 68.21875 203.722656 67.972656 201.832031 67.769531 C 199.941406 67.566406 198.046875 67.40625 196.148438 67.292969 Z M 195.292969 81.6875 C 196.960938 81.785156 198.628906 81.925781 200.292969 82.105469 C 201.953125 82.28125 203.613281 82.5 205.265625 82.757812 C 206.917969 83.015625 208.5625 83.3125 210.203125 83.652344 C 211.839844 83.988281 213.46875 84.363281 215.089844 84.777344 C 216.710938 85.191406 218.320312 85.644531 219.917969 86.136719 C 221.519531 86.625 223.105469 87.15625 224.675781 87.722656 C 226.25 88.289062 227.808594 88.894531 229.355469 89.535156 C 230.898438 90.175781 232.429688 90.855469 233.941406 91.570312 C 235.453125 92.285156 236.949219 93.035156 238.425781 93.820312 C 239.898438 94.605469 241.355469 95.425781 242.792969 96.28125 C 244.230469 97.136719 245.648438 98.027344 247.042969 98.949219 C 248.4375 99.871094 249.808594 100.828125 251.160156 101.816406 C 252.507812 102.804688 253.832031 103.824219 255.132812 104.875 C 256.433594 105.929688 257.707031 107.011719 258.957031 108.121094 C 260.207031 109.234375 261.429688 110.378906 262.621094 111.546875 C 263.816406 112.71875 264.984375 113.917969 266.121094 115.144531 C 267.257812 116.371094 268.363281 117.625 269.441406 118.902344 C 270.519531 120.183594 271.5625 121.488281 272.578125 122.816406 C 273.59375 124.148438 274.578125 125.5 275.527344 126.875 C 276.476562 128.253906 277.394531 129.652344 278.277344 131.070312 C 279.160156 132.492188 280.011719 133.933594 280.824219 135.390625 C 281.640625 136.851562 282.417969 138.332031 283.164062 139.832031 C 283.90625 141.328125 284.617188 142.84375 285.289062 144.375 C 285.960938 145.90625 286.59375 147.453125 287.191406 149.015625 C 287.789062 150.578125 288.351562 152.152344 288.871094 153.742188 C 289.394531 155.332031 289.878906 156.929688 290.328125 158.542969 C 290.773438 160.15625 291.179688 161.777344 291.550781 163.410156 C 291.917969 165.039062 292.246094 166.679688 292.539062 168.328125 C 292.828125 169.972656 293.078125 171.625 293.289062 173.285156 C 293.503906 174.945312 293.675781 176.609375 293.804688 178.277344 C 293.9375 179.941406 294.03125 181.613281 294.082031 183.285156 C 294.136719 184.957031 294.148438 186.628906 294.121094 188.300781 C 294.09375 189.972656 294.027344 191.644531 293.917969 193.3125 C 293.8125 194.980469 293.664062 196.648438 293.476562 198.308594 C 293.292969 199.972656 293.066406 201.628906 292.800781 203.28125 C 292.53125 204.929688 292.226562 206.574219 291.882812 208.210938 C 291.539062 209.847656 291.15625 211.476562 290.734375 213.09375 C 290.3125 214.714844 289.851562 216.320312 289.351562 217.917969 C 288.851562 219.515625 288.316406 221.097656 287.742188 222.667969 C 287.167969 224.238281 286.554688 225.796875 285.90625 227.335938 C 285.257812 228.878906 284.574219 230.402344 283.851562 231.914062 C 283.128906 233.421875 282.371094 234.914062 281.578125 236.386719 C 280.785156 237.859375 279.960938 239.3125 279.097656 240.742188 C 278.234375 242.175781 277.339844 243.589844 276.410156 244.980469 C 275.480469 246.371094 274.515625 247.738281 273.523438 249.082031 C 272.527344 250.425781 271.5 251.746094 270.441406 253.042969 C 269.386719 254.335938 268.296875 255.605469 267.179688 256.851562 C 266.058594 258.09375 264.910156 259.308594 263.734375 260.5 C 262.558594 261.6875 261.355469 262.847656 260.121094 263.976562 C 258.890625 265.109375 257.632812 266.210938 256.347656 267.28125 C 255.0625 268.351562 253.753906 269.394531 252.417969 270.402344 C 251.085938 271.410156 249.726562 272.386719 248.347656 273.328125 C 246.964844 274.273438 245.5625 275.183594 244.136719 276.058594 C 242.714844 276.9375 241.269531 277.777344 239.804688 278.585938 C 238.339844 279.394531 236.855469 280.167969 235.355469 280.902344 C 233.855469 281.640625 232.335938 282.339844 230.800781 283.007812 C 229.265625 283.671875 227.714844 284.296875 226.152344 284.886719 C 224.585938 285.480469 223.007812 286.03125 221.417969 286.546875 C 219.824219 287.0625 218.222656 287.539062 216.609375 287.976562 C 214.996094 288.414062 213.371094 288.816406 211.738281 289.175781 C 210.105469 289.539062 208.464844 289.859375 206.816406 290.140625 C 205.167969 290.425781 203.511719 290.667969 201.851562 290.871094 C 200.191406 291.074219 198.527344 291.238281 196.859375 291.363281 C 195.191406 291.488281 193.523438 291.570312 191.851562 291.617188 C 190.175781 291.660156 188.503906 291.664062 186.832031 291.628906 C 185.160156 291.59375 183.492188 291.519531 181.820312 291.402344 C 180.152344 291.289062 178.488281 291.132812 176.828125 290.9375 C 175.167969 290.742188 173.511719 290.507812 171.859375 290.234375 C 170.210938 289.960938 168.566406 289.648438 166.933594 289.296875 C 165.296875 288.945312 163.671875 288.554688 162.054688 288.125 C 160.4375 287.695312 158.832031 287.226562 157.238281 286.71875 C 155.644531 286.210938 154.066406 285.667969 152.496094 285.085938 C 150.929688 284.503906 149.375 283.886719 147.835938 283.230469 C 146.296875 282.574219 144.777344 281.878906 143.269531 281.152344 C 141.765625 280.421875 140.277344 279.65625 138.808594 278.859375 C 137.339844 278.058594 135.890625 277.222656 134.460938 276.355469 C 133.035156 275.484375 131.625 274.582031 130.238281 273.648438 C 128.855469 272.710938 127.492188 271.742188 126.152344 270.738281 C 124.8125 269.738281 123.496094 268.707031 122.207031 267.640625 C 120.914062 266.578125 119.652344 265.484375 118.414062 264.359375 C 117.175781 263.234375 115.964844 262.082031 114.78125 260.898438 C 113.597656 259.714844 112.445312 258.507812 111.320312 257.269531 C 110.195312 256.03125 109.097656 254.765625 108.035156 253.476562 C 106.96875 252.1875 105.933594 250.875 104.933594 249.535156 C 103.929688 248.195312 102.960938 246.832031 102.023438 245.449219 C 101.085938 244.0625 100.183594 242.65625 99.3125 241.226562 C 98.445312 239.796875 97.609375 238.347656 96.808594 236.882812 C 96.007812 235.414062 95.242188 233.925781 94.511719 232.421875 C 93.78125 230.914062 93.089844 229.394531 92.433594 227.855469 C 91.773438 226.316406 91.15625 224.765625 90.570312 223.199219 C 89.988281 221.628906 89.445312 220.046875 88.9375 218.453125 C 88.429688 216.859375 87.960938 215.257812 87.527344 213.640625 C 87.097656 212.023438 86.707031 210.398438 86.351562 208.761719 C 86 207.128906 85.6875 205.484375 85.410156 203.835938 C 85.136719 202.1875 84.902344 200.53125 84.707031 198.871094 C 84.511719 197.207031 84.355469 195.542969 84.238281 193.875 C 84.121094 192.207031 84.046875 190.535156 84.007812 188.863281 C 83.972656 187.191406 83.976562 185.519531 84.019531 183.847656 C 84.0625 182.175781 84.144531 180.507812 84.269531 178.839844 C 84.394531 177.167969 84.554688 175.503906 84.757812 173.84375 C 84.960938 172.183594 85.203125 170.53125 85.484375 168.882812 C 85.765625 167.234375 86.085938 165.59375 86.449219 163.957031 C 86.808594 162.324219 87.207031 160.703125 87.644531 159.085938 C 88.082031 157.472656 88.558594 155.871094 89.070312 154.277344 C 89.585938 152.6875 90.136719 151.109375 90.726562 149.542969 C 91.316406 147.976562 91.941406 146.425781 92.605469 144.890625 C 93.269531 143.355469 93.96875 141.839844 94.707031 140.335938 C 95.441406 138.835938 96.214844 137.351562 97.019531 135.886719 C 97.828125 134.421875 98.667969 132.976562 99.542969 131.550781 C 100.421875 130.125 101.328125 128.722656 102.273438 127.339844 C 103.214844 125.960938 104.191406 124.601562 105.199219 123.265625 C 106.207031 121.933594 107.246094 120.621094 108.316406 119.335938 C 109.386719 118.050781 110.488281 116.792969 111.617188 115.558594 C 112.746094 114.328125 113.90625 113.121094 115.09375 111.945312 C 116.28125 110.765625 117.5 109.617188 118.742188 108.5 C 119.984375 107.378906 121.253906 106.289062 122.546875 105.230469 C 123.84375 104.171875 125.160156 103.144531 126.507812 102.152344 C 127.851562 101.15625 129.21875 100.191406 130.605469 99.261719 C 131.996094 98.332031 133.40625 97.433594 134.839844 96.570312 C 136.273438 95.707031 137.726562 94.878906 139.199219 94.085938 C 140.671875 93.292969 142.160156 92.535156 143.667969 91.8125 C 145.179688 91.089844 146.703125 90.402344 148.242188 89.753906 C 149.785156 89.101562 151.339844 88.492188 152.910156 87.914062 C 154.480469 87.339844 156.066406 86.800781 157.660156 86.300781 C 159.257812 85.804688 160.863281 85.339844 162.484375 84.917969 C 164.101562 84.496094 165.730469 84.109375 167.367188 83.765625 C 169 83.421875 170.644531 83.113281 172.296875 82.847656 C 173.949219 82.582031 175.605469 82.351562 177.265625 82.164062 Z M 195.292969 81.6875 "/></g><path style=" stroke:none;fill-rule:evenodd;fill:#9333ea;fill-opacity:1;" d="M 190.511719 175.222656 C 191.15625 175.261719 191.796875 175.359375 192.425781 175.519531 C 193.054688 175.683594 193.664062 175.902344 194.25 176.179688 C 194.835938 176.457031 195.394531 176.785156 195.917969 177.171875 C 196.441406 177.554688 196.921875 177.984375 197.363281 178.460938 C 197.804688 178.9375 198.199219 179.449219 198.539062 180 C 198.882812 180.550781 199.171875 181.132812 199.402344 181.738281 C 199.636719 182.34375 199.808594 182.96875 199.921875 183.605469 C 200.035156 184.246094 200.085938 184.890625 200.074219 185.539062 C 200.0625 186.1875 199.992188 186.832031 199.859375 187.464844 C 199.722656 188.101562 199.53125 188.71875 199.277344 189.316406 C 199.027344 189.914062 198.722656 190.484375 198.359375 191.023438 C 198 191.5625 197.589844 192.066406 197.132812 192.527344 C 196.675781 192.988281 196.179688 193.402344 195.644531 193.769531 C 195.109375 194.132812 194.542969 194.445312 193.945312 194.703125 C 193.351562 194.960938 192.734375 195.160156 192.101562 195.300781 C 191.46875 195.441406 190.824219 195.519531 190.175781 195.539062 C 189.527344 195.554688 188.882812 195.511719 188.242188 195.402344 C 187.601562 195.296875 186.976562 195.132812 186.367188 194.90625 C 185.757812 194.679688 185.179688 194.398438 184.625 194.0625 C 184.066406 193.722656 183.550781 193.335938 183.070312 192.898438 C 182.589844 192.464844 182.15625 191.984375 181.765625 191.464844 C 181.375 190.945312 181.039062 190.394531 180.757812 189.808594 C 180.472656 189.226562 180.25 188.617188 180.082031 187.992188 C 179.914062 187.363281 179.808594 186.726562 179.761719 186.078125 C 179.71875 185.429688 179.734375 184.785156 179.8125 184.140625 C 179.890625 183.496094 180.03125 182.863281 180.230469 182.246094 C 180.429688 181.628906 180.6875 181.035156 181 180.46875 C 181.3125 179.898438 181.675781 179.363281 182.09375 178.867188 C 182.507812 178.367188 182.96875 177.910156 183.46875 177.5 C 183.972656 177.089844 184.511719 176.730469 185.082031 176.421875 C 185.652344 176.113281 186.25 175.863281 186.867188 175.667969 C 187.488281 175.476562 188.121094 175.339844 188.765625 175.269531 "/><path style=" stroke:none;fill-rule:evenodd;fill:#9333ea;fill-opacity:1;" d="M 189.90625 99.300781 C 190.183594 99.300781 190.460938 99.328125 190.734375 99.382812 C 191.007812 99.4375 191.269531 99.515625 191.527344 99.625 C 191.785156 99.730469 192.03125 99.859375 192.261719 100.015625 C 192.492188 100.171875 192.707031 100.34375 192.902344 100.542969 C 193.101562 100.738281 193.273438 100.953125 193.429688 101.183594 C 193.585938 101.414062 193.714844 101.660156 193.820312 101.917969 C 193.929688 102.175781 194.007812 102.4375 194.0625 102.710938 C 194.117188 102.984375 194.144531 103.261719 194.144531 103.539062 L 194.144531 179.097656 C 194.144531 179.375 194.117188 179.648438 194.0625 179.921875 C 194.007812 180.195312 193.929688 180.460938 193.820312 180.71875 C 193.714844 180.972656 193.585938 181.21875 193.429688 181.449219 C 193.273438 181.679688 193.101562 181.894531 192.902344 182.09375 C 192.707031 182.289062 192.492188 182.464844 192.261719 182.617188 C 192.03125 182.773438 191.785156 182.902344 191.527344 183.011719 C 191.269531 183.117188 191.007812 183.199219 190.734375 183.25 C 190.460938 183.304688 190.183594 183.332031 189.90625 183.332031 C 189.628906 183.332031 189.351562 183.304688 189.082031 183.25 C 188.808594 183.199219 188.542969 183.117188 188.285156 183.011719 C 188.027344 182.902344 187.785156 182.773438 187.554688 182.617188 C 187.320312 182.464844 187.105469 182.289062 186.910156 182.09375 C 186.714844 181.894531 186.539062 181.679688 186.382812 181.449219 C 186.230469 181.21875 186.097656 180.972656 185.992188 180.71875 C 185.886719 180.460938 185.804688 180.195312 185.75 179.921875 C 185.695312 179.648438 185.667969 179.375 185.667969 179.097656 L 185.667969 103.539062 C 185.667969 103.261719 185.695312 102.984375 185.75 102.710938 C 185.804688 102.4375 185.886719 102.175781 185.992188 101.917969 C 186.097656 101.660156 186.230469 101.414062 186.382812 101.183594 C 186.539062 100.953125 186.714844 100.738281 186.910156 100.542969 C 187.105469 100.34375 187.320312 100.171875 187.554688 100.015625 C 187.785156 99.859375 188.027344 99.730469 188.285156 99.625 C 188.542969 99.515625 188.808594 99.4375 189.082031 99.382812 C 189.351562 99.328125 189.628906 99.300781 189.90625 99.300781 Z M 189.90625 99.300781 "/><path style="fill:none;stroke-width:12;stroke-linecap:butt;stroke-linejoin:miter;stroke:#9333ea;stroke-opacity:1;stroke-miterlimit:4;" d="M -0.000701464 6.001763 L 123.790973 6.001763 " transform="matrix(0.75,0,0,0.75,-16.116661,200.303365)"/><path style="fill:none;stroke-width:12;stroke-linecap:butt;stroke-linejoin:miter;stroke:#9333ea;stroke-opacity:1;stroke-miterlimit:4;" d="M -0.000701464 5.998269 L 123.790973 5.998269 " transform="matrix(0.75,0.000000000000000172,-0.000000000000000172,0.75,-16.116661,165.696611)"/><path style="fill:none;stroke-width:12;stroke-linecap:butt;stroke-linejoin:miter;stroke:#9333ea;stroke-opacity:1;stroke-miterlimit:4;" d="M -0.000703109 5.998308 L 140.332652 5.998308 " transform="matrix(0.748246,0,0,0.748246,-16.116661,131.089914)"/><path style="fill:none;stroke-width:12;stroke-linecap:butt;stroke-linejoin:miter;stroke:#9333ea;stroke-opacity:1;stroke-miterlimit:4;" d="M -0.000702153 6.001015 L 175.18682 6.001015 " transform="matrix(0.749264,0,0,0.749264,-16.116661,269.730217)"/><path style="fill:none;stroke-width:12;stroke-linecap:butt;stroke-linejoin:miter;stroke:#9333ea;stroke-opacity:1;stroke-miterlimit:4;" d="M -0.000703109 6.000459 L 140.332652 6.000459 " transform="matrix(0.748246,0,0,0.748246,-16.116661,235.123461)"/><path style="fill:none;stroke-width:12;stroke-linecap:butt;stroke-linejoin:miter;stroke:#9333ea;stroke-opacity:1;stroke-miterlimit:4;" d="M -0.000702153 6.000376 L 175.18682 6.000376 " transform="matrix(0.749264,-0.000000000000000093,0.000000000000000093,0.749264,-16.116661,96.269758)"/><path style="fill:none;stroke-width:12;stroke-linecap:butt;stroke-linejoin:miter;stroke:#9333ea;stroke-opacity:1;stroke-miterlimit:4;" d="M -0.00113923 6.000364 L 123.092628 6.000364 " transform="matrix(0.749524,0,0,0.749524,298.797729,200.303365)"/><path style="fill:none;stroke-width:12;stroke-linecap:butt;stroke-linejoin:miter;stroke:#9333ea;stroke-opacity:1;stroke-miterlimit:4;" d="M -0.00113923 6.002079 L 123.092628 6.002079 " transform="matrix(0.749524,0,0,0.749524,298.797729,165.696611)"/><path style="fill:none;stroke-width:12;stroke-linecap:butt;stroke-linejoin:miter;stroke:#9333ea;stroke-opacity:1;stroke-miterlimit:4;" d="M -0.00218188 5.999907 L 133.883244 5.999907 " transform="matrix(0.75,0,0,0.75,290.704761,131.089914)"/><path style="fill:none;stroke-width:12;stroke-linecap:butt;stroke-linejoin:miter;stroke:#9333ea;stroke-opacity:1;stroke-miterlimit:4;" d="M 0.0017927 5.998683 L 174.408056 5.998683 " transform="matrix(0.748253,-0.000000000000000278,0.000000000000000278,0.748253,260.311159,269.730217)"/><path style="fill:none;stroke-width:12;stroke-linecap:butt;stroke-linejoin:miter;stroke:#9333ea;stroke-opacity:1;stroke-miterlimit:4;" d="M -0.00218188 6.002053 L 133.883244 6.002053 " transform="matrix(0.75,0,0,0.75,290.704761,235.123461)"/><path style="fill:none;stroke-width:12;stroke-linecap:butt;stroke-linejoin:miter;stroke:#9333ea;stroke-opacity:1;stroke-miterlimit:4;" d="M 0.0017927 5.998044 L 174.408056 5.998044 " transform="matrix(0.748253,-0.000000000000000093,0.000000000000000093,0.748253,260.311159,96.269758)"/></g></svg>