<svg xmlns="http://www.w3.org/2000/svg" xmlns:xlink="http://www.w3.org/1999/xlink" width="500" zoomAndPan="magnify" viewBox="0 0 375 374.999991" height="500" preserveAspectRatio="xMidYMid meet" version="1.2"><defs><clipPath id="2641617801"><path d="M 51 48.726562 L 328 48.726562 L 328 325 L 51 325 Z M 51 48.726562 "/></clipPath></defs><g id="2a1112533d"><path style=" stroke:none;fill-rule:evenodd;fill:#9333ea;fill-opacity:1;" d="M 267.121094 184.046875 L 267.121094 186.019531 C 267.121094 186.539062 267.023438 187.035156 266.824219 187.515625 C 266.628906 187.992188 266.34375 188.414062 265.980469 188.78125 C 265.613281 189.148438 265.191406 189.429688 264.714844 189.628906 C 264.234375 189.824219 263.738281 189.925781 263.21875 189.925781 L 193.589844 189.925781 C 193.070312 189.925781 192.574219 189.824219 192.09375 189.628906 C 191.617188 189.429688 191.195312 189.148438 190.828125 188.78125 C 190.460938 188.414062 190.179688 187.992188 189.984375 187.515625 C 189.785156 187.035156 189.683594 186.539062 189.683594 186.019531 L 189.683594 184.046875 C 189.683594 183.527344 189.785156 183.03125 189.984375 182.550781 C 190.179688 182.074219 190.460938 181.652344 190.828125 181.285156 C 191.195312 180.917969 191.617188 180.636719 192.09375 180.441406 C 192.574219 180.242188 193.070312 180.140625 193.589844 180.140625 L 263.21875 180.140625 C 263.738281 180.140625 264.234375 180.242188 264.714844 180.441406 C 265.191406 180.636719 265.613281 180.917969 265.980469 181.285156 C 266.34375 181.652344 266.628906 182.074219 266.824219 182.550781 C 267.023438 183.03125 267.121094 183.527344 267.121094 184.046875 Z M 267.121094 184.046875 "/><g clip-rule="nonzero" clip-path="url(#2641617801)"><path style=" stroke:none;fill-rule:evenodd;fill:#9333ea;fill-opacity:1;" d="M 197.460938 48.71875 L 173.800781 49.347656 C 171.617188 49.59375 169.441406 49.894531 167.277344 50.242188 C 165.109375 50.59375 162.949219 50.996094 160.800781 51.449219 C 158.65625 51.902344 156.519531 52.40625 154.394531 52.960938 C 152.269531 53.515625 150.160156 54.125 148.066406 54.777344 C 145.96875 55.433594 143.890625 56.140625 141.832031 56.894531 C 139.769531 57.652344 137.726562 58.457031 135.703125 59.308594 C 133.679688 60.160156 131.679688 61.0625 129.699219 62.011719 C 127.71875 62.957031 125.761719 63.953125 123.832031 64.996094 C 121.898438 66.035156 119.992188 67.125 118.109375 68.257812 C 116.230469 69.390625 114.378906 70.566406 112.554688 71.789062 C 110.730469 73.007812 108.933594 74.273438 107.171875 75.582031 C 105.40625 76.886719 103.675781 78.234375 101.976562 79.625 C 100.277344 81.015625 98.609375 82.445312 96.980469 83.914062 C 95.347656 85.382812 93.753906 86.890625 92.191406 88.4375 C 90.632812 89.980469 89.113281 91.5625 87.628906 93.179688 C 86.144531 94.800781 84.699219 96.453125 83.296875 98.136719 C 81.890625 99.824219 80.527344 101.546875 79.203125 103.296875 C 77.878906 105.050781 76.601562 106.832031 75.363281 108.644531 C 74.125 110.457031 72.929688 112.300781 71.78125 114.171875 C 70.632812 116.042969 69.527344 117.9375 68.46875 119.859375 C 67.410156 121.785156 66.394531 123.730469 65.429688 125.703125 C 64.464844 127.675781 63.546875 129.667969 62.675781 131.683594 C 61.804688 133.699219 60.980469 135.734375 60.207031 137.789062 C 59.433594 139.84375 58.710938 141.914062 58.035156 144.003906 C 57.359375 146.09375 56.734375 148.195312 56.160156 150.316406 C 55.585938 152.433594 55.0625 154.566406 54.589844 156.710938 C 54.117188 158.851562 53.695312 161.007812 53.328125 163.171875 C 52.957031 165.335938 52.640625 167.507812 52.371094 169.6875 C 52.105469 171.867188 51.894531 174.050781 51.730469 176.238281 C 51.570312 178.429688 51.460938 180.621094 51.402344 182.816406 C 51.347656 185.011719 51.339844 187.207031 51.390625 189.398438 C 51.4375 191.59375 51.539062 193.789062 51.691406 195.976562 C 51.84375 198.167969 52.046875 200.351562 52.304688 202.535156 C 52.5625 204.714844 52.871094 206.886719 53.230469 209.050781 C 53.589844 211.21875 54.003906 213.375 54.464844 215.519531 C 54.929688 217.664062 55.445312 219.800781 56.007812 221.921875 C 56.574219 224.042969 57.191406 226.148438 57.855469 228.242188 C 58.523438 230.332031 59.238281 232.40625 60.003906 234.464844 C 60.769531 236.523438 61.582031 238.5625 62.445312 240.582031 C 63.308594 242.597656 64.21875 244.597656 65.175781 246.570312 C 66.132812 248.546875 67.136719 250.5 68.1875 252.425781 C 69.238281 254.355469 70.335938 256.253906 71.476562 258.128906 C 72.621094 260.003906 73.804688 261.851562 75.035156 263.671875 C 76.265625 265.488281 77.539062 267.277344 78.855469 269.035156 C 80.167969 270.792969 81.527344 272.519531 82.925781 274.210938 C 84.320312 275.902344 85.757812 277.5625 87.234375 279.1875 C 88.714844 280.8125 90.226562 282.398438 91.78125 283.953125 C 93.332031 285.503906 94.921875 287.015625 96.546875 288.492188 C 98.171875 289.96875 99.832031 291.40625 101.527344 292.800781 C 103.21875 294.199219 104.945312 295.554688 106.703125 296.871094 C 108.464844 298.183594 110.253906 299.457031 112.070312 300.683594 C 113.890625 301.914062 115.738281 303.097656 117.613281 304.238281 C 119.488281 305.378906 121.390625 306.476562 123.320312 307.523438 C 125.246094 308.574219 127.199219 309.578125 129.175781 310.535156 C 131.152344 311.492188 133.148438 312.402344 135.167969 313.261719 C 137.1875 314.125 139.226562 314.9375 141.285156 315.699219 C 143.34375 316.464844 145.417969 317.179688 147.511719 317.84375 C 149.605469 318.507812 151.710938 319.121094 153.832031 319.6875 C 155.953125 320.25 158.089844 320.765625 160.234375 321.226562 C 162.378906 321.6875 164.535156 322.101562 166.703125 322.460938 C 168.867188 322.820312 171.042969 323.125 173.222656 323.382812 C 175.402344 323.636719 177.585938 323.839844 179.777344 323.992188 C 181.96875 324.144531 184.160156 324.242188 186.355469 324.289062 C 188.550781 324.335938 190.746094 324.328125 192.941406 324.269531 C 195.136719 324.210938 197.328125 324.101562 199.515625 323.9375 C 201.707031 323.777344 203.890625 323.558594 206.070312 323.292969 C 208.246094 323.027344 210.417969 322.707031 212.582031 322.335938 C 214.746094 321.964844 216.902344 321.542969 219.042969 321.070312 C 221.1875 320.59375 223.320312 320.070312 225.4375 319.496094 C 227.558594 318.917969 229.660156 318.292969 231.75 317.617188 C 233.835938 316.941406 235.910156 316.214844 237.964844 315.441406 C 240.015625 314.664062 242.050781 313.84375 244.066406 312.96875 C 246.082031 312.097656 248.074219 311.179688 250.046875 310.210938 C 252.015625 309.242188 253.960938 308.230469 255.886719 307.167969 C 257.808594 306.109375 259.703125 305.003906 261.574219 303.851562 C 263.441406 302.703125 265.285156 301.507812 267.097656 300.269531 C 268.910156 299.03125 270.691406 297.75 272.441406 296.425781 C 274.195312 295.101562 275.914062 293.734375 277.597656 292.332031 C 279.285156 290.925781 280.9375 289.480469 282.554688 287.996094 C 284.171875 286.507812 285.753906 284.988281 287.296875 283.425781 C 288.839844 281.867188 290.347656 280.269531 291.816406 278.636719 C 293.285156 277.003906 294.710938 275.339844 296.101562 273.640625 C 297.488281 271.9375 298.835938 270.207031 300.144531 268.441406 C 301.449219 266.675781 302.710938 264.882812 303.933594 263.054688 C 305.152344 261.230469 306.328125 259.378906 307.460938 257.496094 C 308.59375 255.617188 309.679688 253.707031 310.71875 251.777344 C 311.757812 249.84375 312.753906 247.886719 313.699219 245.90625 C 314.648438 243.925781 315.546875 241.921875 316.398438 239.898438 C 317.25 237.875 318.054688 235.832031 318.808594 233.769531 C 319.5625 231.710938 320.265625 229.628906 320.921875 227.535156 C 321.574219 225.4375 322.179688 223.328125 322.734375 221.207031 C 323.289062 219.082031 323.792969 216.945312 324.242188 214.796875 C 324.695312 212.648438 325.097656 210.488281 325.445312 208.320312 C 325.792969 206.15625 326.089844 203.980469 326.335938 201.796875 C 326.582031 199.617188 326.773438 197.429688 326.914062 195.238281 C 327.054688 193.046875 327.144531 190.855469 327.179688 188.660156 C 327.214844 186.464844 327.199219 184.269531 327.132812 182.074219 C 327.0625 179.882812 326.941406 177.691406 326.769531 175.5 C 326.59375 173.3125 326.367188 171.128906 326.089844 168.953125 C 325.8125 166.773438 325.484375 164.605469 325.101562 162.441406 C 324.722656 160.28125 324.289062 158.128906 323.804688 155.988281 C 323.320312 153.847656 322.785156 151.71875 322.199219 149.601562 C 321.613281 147.484375 320.976562 145.386719 320.292969 143.300781 C 319.605469 141.214844 318.871094 139.144531 318.085938 137.09375 C 317.300781 135.046875 316.46875 133.015625 315.585938 131.003906 C 314.703125 128.992188 313.773438 127.003906 312.796875 125.039062 C 311.820312 123.074219 310.796875 121.132812 309.730469 119.214844 C 308.660156 117.296875 307.542969 115.40625 306.386719 113.542969 C 305.226562 111.675781 304.023438 109.84375 302.773438 108.035156 C 301.527344 106.230469 300.238281 104.453125 298.90625 102.707031 C 297.574219 100.964844 296.199219 99.25 294.785156 97.570312 C 293.371094 95.890625 291.917969 94.246094 290.425781 92.636719 C 288.933594 91.027344 287.402344 89.453125 285.835938 87.917969 C 284.269531 86.378906 282.664062 84.878906 281.027344 83.421875 C 279.386719 81.960938 277.714844 80.539062 276.007812 79.160156 C 274.300781 77.777344 272.558594 76.4375 270.789062 75.140625 C 269.019531 73.84375 267.21875 72.589844 265.386719 71.378906 C 263.554688 70.167969 261.695312 69 259.808594 67.875 C 257.921875 66.753906 256.011719 65.675781 254.074219 64.644531 C 252.132812 63.613281 250.171875 62.628906 248.1875 61.691406 C 246.203125 60.753906 244.195312 59.863281 242.167969 59.023438 C 240.140625 58.179688 238.09375 57.386719 236.03125 56.644531 C 233.964844 55.898438 231.882812 55.203125 229.785156 54.558594 C 227.683594 53.914062 225.570312 53.320312 223.445312 52.777344 C 221.316406 52.234375 219.179688 51.738281 217.027344 51.296875 C 214.878906 50.855469 212.71875 50.464844 210.550781 50.128906 C 208.378906 49.789062 206.203125 49.503906 204.019531 49.269531 C 201.839844 49.035156 199.652344 48.851562 197.460938 48.71875 Z M 196.472656 65.335938 C 198.402344 65.449219 200.324219 65.609375 202.242188 65.816406 C 204.164062 66.023438 206.078125 66.273438 207.984375 66.570312 C 209.890625 66.871094 211.792969 67.210938 213.683594 67.601562 C 215.574219 67.988281 217.457031 68.421875 219.324219 68.902344 C 221.195312 69.378906 223.054688 69.902344 224.898438 70.46875 C 226.746094 71.035156 228.578125 71.648438 230.394531 72.300781 C 232.210938 72.957031 234.007812 73.652344 235.792969 74.394531 C 237.574219 75.132812 239.339844 75.917969 241.085938 76.742188 C 242.832031 77.566406 244.554688 78.433594 246.261719 79.339844 C 247.964844 80.246094 249.648438 81.195312 251.304688 82.179688 C 252.964844 83.167969 254.601562 84.195312 256.210938 85.261719 C 257.820312 86.324219 259.402344 87.429688 260.960938 88.570312 C 262.519531 89.710938 264.046875 90.886719 265.550781 92.101562 C 267.050781 93.316406 268.523438 94.566406 269.964844 95.851562 C 271.40625 97.132812 272.816406 98.453125 274.195312 99.804688 C 275.574219 101.15625 276.917969 102.539062 278.230469 103.957031 C 279.542969 105.371094 280.820312 106.820312 282.066406 108.296875 C 283.308594 109.773438 284.515625 111.277344 285.6875 112.8125 C 286.859375 114.347656 287.992188 115.910156 289.089844 117.496094 C 290.1875 119.085938 291.246094 120.699219 292.265625 122.339844 C 293.285156 123.980469 294.265625 125.640625 295.207031 127.328125 C 296.148438 129.015625 297.046875 130.722656 297.90625 132.453125 C 298.765625 134.179688 299.582031 135.929688 300.355469 137.699219 C 301.132812 139.464844 301.867188 141.25 302.554688 143.054688 C 303.246094 144.859375 303.894531 146.675781 304.496094 148.511719 C 305.097656 150.34375 305.660156 152.191406 306.171875 154.050781 C 306.6875 155.914062 307.160156 157.785156 307.585938 159.667969 C 308.011719 161.550781 308.390625 163.445312 308.726562 165.34375 C 309.0625 167.246094 309.351562 169.15625 309.597656 171.070312 C 309.839844 172.984375 310.039062 174.90625 310.191406 176.832031 C 310.34375 178.753906 310.449219 180.683594 310.511719 182.613281 C 310.570312 184.542969 310.585938 186.472656 310.554688 188.402344 C 310.523438 190.332031 310.445312 192.261719 310.320312 194.1875 C 310.195312 196.113281 310.027344 198.039062 309.8125 199.957031 C 309.597656 201.875 309.335938 203.789062 309.027344 205.695312 C 308.722656 207.601562 308.367188 209.496094 307.972656 211.386719 C 307.574219 213.277344 307.132812 215.15625 306.644531 217.023438 C 306.15625 218.890625 305.625 220.746094 305.050781 222.589844 C 304.472656 224.433594 303.855469 226.261719 303.191406 228.074219 C 302.527344 229.886719 301.820312 231.683594 301.074219 233.464844 C 300.324219 235.242188 299.53125 237.003906 298.699219 238.746094 C 297.867188 240.488281 296.992188 242.207031 296.078125 243.90625 C 295.164062 245.609375 294.207031 247.285156 293.210938 248.941406 C 292.214844 250.59375 291.183594 252.222656 290.109375 253.828125 C 289.035156 255.433594 287.925781 257.011719 286.777344 258.5625 C 285.628906 260.117188 284.441406 261.640625 283.222656 263.136719 C 282 264.628906 280.746094 266.097656 279.453125 267.53125 C 278.160156 268.96875 276.835938 270.371094 275.480469 271.742188 C 274.121094 273.113281 272.730469 274.453125 271.308594 275.757812 C 269.886719 277.066406 268.433594 278.335938 266.949219 279.574219 C 265.46875 280.808594 263.957031 282.007812 262.414062 283.171875 C 260.875 284.339844 259.308594 285.464844 257.714844 286.554688 C 256.121094 287.644531 254.5 288.695312 252.855469 289.707031 C 251.210938 290.71875 249.546875 291.691406 247.855469 292.621094 C 246.164062 293.554688 244.453125 294.445312 242.71875 295.296875 C 240.984375 296.148438 239.234375 296.957031 237.460938 297.722656 C 235.6875 298.492188 233.898438 299.214844 232.09375 299.898438 C 230.289062 300.578125 228.464844 301.214844 226.628906 301.8125 C 224.792969 302.40625 222.941406 302.957031 221.078125 303.460938 C 219.214844 303.96875 217.339844 304.429688 215.457031 304.847656 C 213.570312 305.261719 211.675781 305.632812 209.773438 305.960938 C 207.871094 306.285156 205.960938 306.566406 204.042969 306.800781 C 202.128906 307.039062 200.207031 307.226562 198.28125 307.371094 C 196.355469 307.511719 194.429688 307.609375 192.5 307.664062 C 190.570312 307.714844 188.636719 307.71875 186.707031 307.679688 C 184.777344 307.636719 182.851562 307.550781 180.921875 307.417969 C 178.996094 307.285156 177.074219 307.105469 175.15625 306.878906 C 173.242188 306.65625 171.328125 306.386719 169.425781 306.070312 C 167.519531 305.753906 165.625 305.390625 163.738281 304.984375 C 161.847656 304.578125 159.972656 304.128906 158.105469 303.632812 C 156.242188 303.136719 154.386719 302.59375 152.546875 302.011719 C 150.707031 301.425781 148.882812 300.796875 147.070312 300.125 C 145.261719 299.453125 143.46875 298.738281 141.691406 297.980469 C 139.917969 297.222656 138.160156 296.425781 136.421875 295.582031 C 134.683594 294.742188 132.96875 293.859375 131.273438 292.9375 C 129.578125 292.011719 127.902344 291.050781 126.253906 290.046875 C 124.605469 289.042969 122.980469 288 121.378906 286.921875 C 119.78125 285.839844 118.207031 284.722656 116.660156 283.566406 C 115.113281 282.410156 113.597656 281.21875 112.105469 279.988281 C 110.617188 278.761719 109.15625 277.496094 107.730469 276.199219 C 106.300781 274.902344 104.902344 273.570312 103.535156 272.203125 C 102.171875 270.839844 100.839844 269.441406 99.539062 268.015625 C 98.242188 266.585938 96.976562 265.128906 95.746094 263.636719 C 94.519531 262.148438 93.324219 260.632812 92.167969 259.085938 C 91.011719 257.539062 89.890625 255.96875 88.808594 254.367188 C 87.730469 252.769531 86.6875 251.144531 85.679688 249.496094 C 84.675781 247.847656 83.714844 246.175781 82.789062 244.480469 C 81.863281 242.785156 80.980469 241.070312 80.140625 239.332031 C 79.296875 237.59375 78.496094 235.839844 77.738281 234.0625 C 76.980469 232.285156 76.261719 230.496094 75.589844 228.683594 C 74.917969 226.875 74.289062 225.050781 73.703125 223.210938 C 73.117188 221.371094 72.574219 219.519531 72.078125 217.652344 C 71.582031 215.785156 71.128906 213.910156 70.71875 212.023438 C 70.3125 210.136719 69.949219 208.242188 69.632812 206.335938 C 69.316406 204.429688 69.042969 202.519531 68.820312 200.601562 C 68.59375 198.683594 68.414062 196.761719 68.277344 194.835938 C 68.144531 192.910156 68.054688 190.984375 68.015625 189.054688 C 67.972656 187.121094 67.976562 185.191406 68.027344 183.261719 C 68.078125 181.332031 68.171875 179.40625 68.316406 177.480469 C 68.457031 175.554688 68.644531 173.632812 68.878906 171.714844 C 69.113281 169.800781 69.394531 167.890625 69.71875 165.988281 C 70.042969 164.082031 70.414062 162.1875 70.828125 160.304688 C 71.246094 158.417969 71.707031 156.542969 72.210938 154.679688 C 72.714844 152.816406 73.265625 150.964844 73.859375 149.128906 C 74.453125 147.292969 75.089844 145.46875 75.769531 143.664062 C 76.449219 141.855469 77.171875 140.066406 77.9375 138.292969 C 78.703125 136.523438 79.511719 134.769531 80.363281 133.035156 C 81.210938 131.300781 82.101562 129.589844 83.035156 127.898438 C 83.964844 126.207031 84.9375 124.539062 85.949219 122.894531 C 86.960938 121.25 88.007812 119.628906 89.097656 118.035156 C 90.1875 116.441406 91.3125 114.871094 92.476562 113.332031 C 93.636719 111.789062 94.835938 110.277344 96.074219 108.792969 C 97.308594 107.3125 98.578125 105.859375 99.882812 104.433594 C 101.1875 103.011719 102.527344 101.621094 103.898438 100.261719 C 105.269531 98.902344 106.671875 97.578125 108.105469 96.285156 C 109.542969 94.992188 111.007812 93.734375 112.5 92.511719 C 113.996094 91.292969 115.519531 90.105469 117.070312 88.957031 C 118.621094 87.808594 120.199219 86.695312 121.804688 85.621094 C 123.410156 84.546875 125.039062 83.511719 126.691406 82.515625 C 128.34375 81.519531 130.023438 80.5625 131.722656 79.648438 C 133.421875 78.730469 135.140625 77.855469 136.882812 77.023438 C 138.625 76.1875 140.382812 75.394531 142.164062 74.644531 C 143.941406 73.894531 145.738281 73.1875 147.550781 72.523438 C 149.363281 71.859375 151.191406 71.238281 153.035156 70.664062 C 154.875 70.085938 156.730469 69.554688 158.601562 69.066406 C 160.46875 68.578125 162.347656 68.132812 164.234375 67.734375 C 166.125 67.335938 168.023438 66.980469 169.929688 66.675781 C 171.835938 66.367188 173.746094 66.105469 175.664062 65.886719 Z M 196.472656 65.335938 "/></g><path style=" stroke:none;fill-rule:evenodd;fill:#9333ea;fill-opacity:1;" d="M 190.953125 173.304688 C 191.699219 173.351562 192.4375 173.464844 193.164062 173.652344 C 193.890625 173.835938 194.59375 174.089844 195.269531 174.410156 C 195.949219 174.730469 196.589844 175.109375 197.191406 175.554688 C 197.796875 175.996094 198.355469 176.492188 198.863281 177.042969 C 199.375 177.59375 199.828125 178.183594 200.222656 178.820312 C 200.617188 179.457031 200.949219 180.125 201.21875 180.828125 C 201.484375 181.527344 201.683594 182.246094 201.816406 182.984375 C 201.945312 183.722656 202.003906 184.464844 201.992188 185.214844 C 201.980469 185.964844 201.898438 186.707031 201.742188 187.4375 C 201.589844 188.171875 201.367188 188.886719 201.074219 189.574219 C 200.785156 190.265625 200.429688 190.921875 200.015625 191.546875 C 199.597656 192.167969 199.125 192.746094 198.597656 193.28125 C 198.070312 193.8125 197.496094 194.289062 196.878906 194.714844 C 196.261719 195.136719 195.605469 195.496094 194.917969 195.792969 C 194.230469 196.09375 193.519531 196.320312 192.789062 196.484375 C 192.058594 196.644531 191.316406 196.738281 190.566406 196.757812 C 189.816406 196.777344 189.074219 196.726562 188.335938 196.601562 C 187.59375 196.480469 186.875 196.289062 186.171875 196.027344 C 185.46875 195.765625 184.796875 195.441406 184.15625 195.050781 C 183.515625 194.660156 182.917969 194.214844 182.363281 193.710938 C 181.808594 193.207031 181.308594 192.65625 180.859375 192.054688 C 180.410156 191.457031 180.019531 190.816406 179.695312 190.144531 C 179.367188 189.46875 179.105469 188.769531 178.914062 188.046875 C 178.722656 187.320312 178.597656 186.585938 178.546875 185.835938 C 178.496094 185.089844 178.511719 184.34375 178.605469 183.601562 C 178.695312 182.855469 178.855469 182.128906 179.085938 181.414062 C 179.316406 180.699219 179.613281 180.015625 179.972656 179.359375 C 180.335938 178.703125 180.757812 178.085938 181.234375 177.511719 C 181.714844 176.933594 182.246094 176.410156 182.824219 175.933594 C 183.40625 175.460938 184.027344 175.046875 184.6875 174.691406 C 185.34375 174.335938 186.03125 174.042969 186.75 173.820312 C 187.464844 173.597656 188.195312 173.441406 188.9375 173.359375 "/><path style=" stroke:none;fill-rule:evenodd;fill:#9333ea;fill-opacity:1;" d="M 190.257812 85.667969 C 190.578125 85.667969 190.894531 85.699219 191.210938 85.761719 C 191.523438 85.824219 191.832031 85.917969 192.128906 86.039062 C 192.425781 86.164062 192.707031 86.3125 192.972656 86.492188 C 193.242188 86.671875 193.488281 86.871094 193.714844 87.101562 C 193.941406 87.328125 194.144531 87.574219 194.324219 87.839844 C 194.5 88.109375 194.652344 88.390625 194.773438 88.6875 C 194.898438 88.984375 194.992188 89.289062 195.054688 89.605469 C 195.117188 89.917969 195.148438 90.238281 195.148438 90.558594 L 195.148438 177.777344 C 195.148438 178.097656 195.117188 178.417969 195.054688 178.730469 C 194.992188 179.046875 194.898438 179.351562 194.773438 179.648438 C 194.652344 179.945312 194.5 180.226562 194.324219 180.496094 C 194.144531 180.761719 193.941406 181.007812 193.714844 181.234375 C 193.488281 181.460938 193.242188 181.664062 192.972656 181.84375 C 192.707031 182.023438 192.425781 182.171875 192.128906 182.296875 C 191.832031 182.417969 191.523438 182.511719 191.210938 182.574219 C 190.894531 182.636719 190.578125 182.667969 190.257812 182.667969 C 189.933594 182.667969 189.617188 182.636719 189.300781 182.574219 C 188.988281 182.511719 188.679688 182.417969 188.382812 182.296875 C 188.085938 182.171875 187.804688 182.023438 187.539062 181.84375 C 187.273438 181.664062 187.023438 181.460938 186.796875 181.234375 C 186.570312 181.007812 186.367188 180.761719 186.1875 180.496094 C 186.011719 180.226562 185.859375 179.945312 185.738281 179.648438 C 185.613281 179.351562 185.523438 179.046875 185.457031 178.730469 C 185.394531 178.417969 185.363281 178.097656 185.363281 177.777344 L 185.363281 90.558594 C 185.363281 90.238281 185.394531 89.917969 185.457031 89.605469 C 185.523438 89.289062 185.613281 88.984375 185.738281 88.6875 C 185.859375 88.390625 186.011719 88.109375 186.1875 87.839844 C 186.367188 87.574219 186.570312 87.328125 186.796875 87.101562 C 187.023438 86.871094 187.273438 86.671875 187.539062 86.492188 C 187.804688 86.3125 188.085938 86.164062 188.382812 86.039062 C 188.679688 85.917969 188.988281 85.824219 189.300781 85.761719 C 189.617188 85.699219 189.933594 85.667969 190.257812 85.667969 Z M 190.257812 85.667969 "/><path style="fill:none;stroke-width:27;stroke-linecap:butt;stroke-linejoin:miter;stroke:#9333ea;stroke-opacity:1;stroke-miterlimit:4;" d="M 0.00102653 13.501647 L 142.740619 13.501647 " transform="matrix(0.75,0,0,0.75,-47.289832,197.455797)"/><path style="fill:none;stroke-width:27;stroke-linecap:butt;stroke-linejoin:miter;stroke:#9333ea;stroke-opacity:1;stroke-miterlimit:4;" d="M 0.00102653 13.498386 L 142.740619 13.498386 " transform="matrix(0.75,0.000000000000000149,-0.000000000000000149,0.75,-47.289832,157.29418)"/><path style="fill:none;stroke-width:27;stroke-linecap:butt;stroke-linejoin:miter;stroke:#9333ea;stroke-opacity:1;stroke-miterlimit:4;" d="M 0.00102653 13.500317 L 161.813537 13.500317 " transform="matrix(0.75,0,0,0.75,-47.289832,117.132576)"/><path style="fill:none;stroke-width:27;stroke-linecap:butt;stroke-linejoin:miter;stroke:#9333ea;stroke-opacity:1;stroke-miterlimit:4;" d="M 0.00102653 13.500923 L 209.631249 13.500923 " transform="matrix(0.75,0,0,0.75,-47.289832,278.026652)"/><path style="fill:none;stroke-width:27;stroke-linecap:butt;stroke-linejoin:miter;stroke:#9333ea;stroke-opacity:1;stroke-miterlimit:4;" d="M 0.00102653 13.497627 L 161.813537 13.497627 " transform="matrix(0.75,0,0,0.75,-47.289832,237.865062)"/><path style="fill:none;stroke-width:27;stroke-linecap:butt;stroke-linejoin:miter;stroke:#9333ea;stroke-opacity:1;stroke-miterlimit:4;" d="M 0.00102894 13.499547 L 206.49586 13.499547 " transform="matrix(0.748241,0,0,0.748241,-47.289832,76.72331)"/><path style="fill:none;stroke-width:27;stroke-linecap:butt;stroke-linejoin:miter;stroke:#9333ea;stroke-opacity:1;stroke-miterlimit:4;" d="M -0.00160621 13.501647 L 141.935903 13.501647 " transform="matrix(0.75,0,0,0.75,315.837142,197.455797)"/><path style="fill:none;stroke-width:27;stroke-linecap:butt;stroke-linejoin:miter;stroke:#9333ea;stroke-opacity:1;stroke-miterlimit:4;" d="M -0.00160621 13.498386 L 141.935903 13.498386 " transform="matrix(0.75,0,0,0.75,315.837142,157.29418)"/><path style="fill:none;stroke-width:27;stroke-linecap:butt;stroke-linejoin:miter;stroke:#9333ea;stroke-opacity:1;stroke-miterlimit:4;" d="M -0.0016634 13.501865 L 154.378563 13.501865 " transform="matrix(0.748178,0,0,0.748178,306.505151,117.132576)"/><path style="fill:none;stroke-width:27;stroke-linecap:butt;stroke-linejoin:miter;stroke:#9333ea;stroke-opacity:1;stroke-miterlimit:4;" d="M -0.00250999 13.500791 L 204.247516 13.500791 " transform="matrix(0.749139,0,0,0.749139,269.103443,278.026652)"/><path style="fill:none;stroke-width:27;stroke-linecap:butt;stroke-linejoin:miter;stroke:#9333ea;stroke-opacity:1;stroke-miterlimit:4;" d="M -0.0016634 13.499168 L 154.378563 13.499168 " transform="matrix(0.748178,0,0,0.748178,306.505151,237.865062)"/><path style="fill:none;stroke-width:27;stroke-linecap:butt;stroke-linejoin:miter;stroke:#9333ea;stroke-opacity:1;stroke-miterlimit:4;" d="M -0.00176752 13.500215 L 201.107636 13.500215 " transform="matrix(0.74965,-0.000000000000000186,0.000000000000000186,0.74965,271.458356,76.72331)"/></g></svg>