<svg xmlns="http://www.w3.org/2000/svg" xmlns:xlink="http://www.w3.org/1999/xlink" width="500" zoomAndPan="magnify" viewBox="0 0 375 374.999991" height="500" preserveAspectRatio="xMidYMid meet" version="1.2"><defs><clipPath id="ba73bd8641"><path d="M 17.34375 17.34375 L 357.65625 17.34375 L 357.65625 357.65625 L 17.34375 357.65625 Z M 17.34375 17.34375 "/></clipPath><clipPath id="8e2be388ae"><path d="M 187.5 17.34375 C 93.523438 17.34375 17.34375 93.523438 17.34375 187.5 C 17.34375 281.476562 93.523438 357.65625 187.5 357.65625 C 281.476562 357.65625 357.65625 281.476562 357.65625 187.5 C 357.65625 93.523438 281.476562 17.34375 187.5 17.34375 Z M 187.5 17.34375 "/></clipPath><clipPath id="6b19adc008"><path d="M 6 2.972656 L 374 2.972656 L 374 370 L 6 370 Z M 6 2.972656 "/></clipPath></defs><g id="35e692c2c7"><g clip-rule="nonzero" clip-path="url(#ba73bd8641)"><g clip-rule="nonzero" clip-path="url(#8e2be388ae)"><path style=" stroke:none;fill-rule:nonzero;fill:#ffffff;fill-opacity:1;" d="M 17.34375 17.34375 L 357.65625 17.34375 L 357.65625 357.65625 L 17.34375 357.65625 Z M 17.34375 17.34375 "/></g></g><path style=" stroke:none;fill-rule:evenodd;fill:#9333ea;fill-opacity:1;" d="M 293.390625 182.914062 L 293.390625 185.539062 C 293.390625 185.878906 293.355469 186.214844 293.289062 186.550781 C 293.222656 186.886719 293.125 187.210938 292.996094 187.523438 C 292.863281 187.839844 292.703125 188.140625 292.515625 188.421875 C 292.328125 188.707031 292.109375 188.96875 291.871094 189.207031 C 291.628906 189.449219 291.367188 189.664062 291.082031 189.855469 C 290.800781 190.042969 290.5 190.203125 290.1875 190.335938 C 289.871094 190.464844 289.546875 190.5625 289.210938 190.628906 C 288.878906 190.695312 288.539062 190.730469 288.199219 190.730469 L 195.609375 190.730469 C 195.269531 190.730469 194.933594 190.695312 194.597656 190.628906 C 194.261719 190.5625 193.9375 190.464844 193.625 190.335938 C 193.308594 190.203125 193.011719 190.042969 192.726562 189.855469 C 192.441406 189.664062 192.179688 189.449219 191.941406 189.207031 C 191.699219 188.96875 191.484375 188.707031 191.292969 188.421875 C 191.105469 188.140625 190.945312 187.839844 190.816406 187.523438 C 190.683594 187.210938 190.585938 186.886719 190.519531 186.550781 C 190.453125 186.214844 190.417969 185.878906 190.417969 185.539062 L 190.417969 182.914062 C 190.417969 182.570312 190.453125 182.234375 190.519531 181.898438 C 190.585938 181.566406 190.683594 181.242188 190.816406 180.925781 C 190.945312 180.609375 191.105469 180.3125 191.292969 180.027344 C 191.484375 179.746094 191.699219 179.484375 191.941406 179.242188 C 192.179688 179 192.441406 178.785156 192.726562 178.597656 C 193.011719 178.40625 193.308594 178.246094 193.625 178.117188 C 193.9375 177.984375 194.261719 177.886719 194.597656 177.820312 C 194.933594 177.753906 195.269531 177.722656 195.609375 177.722656 L 288.199219 177.722656 C 288.539062 177.722656 288.878906 177.753906 289.210938 177.820312 C 289.546875 177.886719 289.871094 177.984375 290.1875 178.117188 C 290.5 178.246094 290.800781 178.40625 291.082031 178.597656 C 291.367188 178.785156 291.628906 179 291.871094 179.242188 C 292.109375 179.484375 292.328125 179.746094 292.515625 180.027344 C 292.703125 180.3125 292.863281 180.609375 292.996094 180.925781 C 293.125 181.242188 293.222656 181.566406 293.289062 181.898438 C 293.355469 182.234375 293.390625 182.570312 293.390625 182.914062 Z M 293.390625 182.914062 "/><g clip-rule="nonzero" clip-path="url(#6b19adc008)"><path style=" stroke:none;fill-rule:evenodd;fill:#9333ea;fill-opacity:1;" d="M 200.757812 2.964844 L 169.292969 3.800781 C 166.394531 4.128906 163.503906 4.527344 160.621094 4.992188 C 157.738281 5.457031 154.871094 5.992188 152.011719 6.59375 C 149.15625 7.195312 146.316406 7.867188 143.492188 8.605469 C 140.667969 9.34375 137.863281 10.148438 135.074219 11.023438 C 132.289062 11.894531 129.527344 12.832031 126.785156 13.835938 C 124.042969 14.839844 121.328125 15.910156 118.636719 17.042969 C 115.949219 18.179688 113.285156 19.375 110.652344 20.636719 C 108.019531 21.898438 105.421875 23.222656 102.851562 24.605469 C 100.28125 25.992188 97.746094 27.4375 95.246094 28.945312 C 92.742188 30.449219 90.28125 32.015625 87.855469 33.640625 C 85.429688 35.261719 83.042969 36.945312 80.699219 38.683594 C 78.351562 40.421875 76.050781 42.214844 73.789062 44.0625 C 71.527344 45.910156 69.3125 47.808594 67.144531 49.761719 C 64.976562 51.71875 62.855469 53.722656 60.78125 55.777344 C 58.707031 57.832031 56.683594 59.933594 54.710938 62.085938 C 52.738281 64.238281 50.816406 66.433594 48.949219 68.679688 C 47.082031 70.921875 45.265625 73.207031 43.507812 75.539062 C 41.75 77.867188 40.046875 80.238281 38.402344 82.648438 C 36.753906 85.0625 35.167969 87.511719 33.640625 89.996094 C 32.109375 92.484375 30.640625 95.007812 29.234375 97.5625 C 27.824219 100.121094 26.476562 102.710938 25.195312 105.332031 C 23.910156 107.953125 22.6875 110.601562 21.53125 113.28125 C 20.371094 115.960938 19.277344 118.667969 18.25 121.402344 C 17.21875 124.132812 16.257812 126.886719 15.359375 129.664062 C 14.460938 132.445312 13.632812 135.242188 12.867188 138.058594 C 12.105469 140.875 11.40625 143.710938 10.777344 146.5625 C 10.152344 149.414062 9.589844 152.277344 9.097656 155.15625 C 8.609375 158.03125 8.183594 160.921875 7.832031 163.816406 C 7.476562 166.714844 7.191406 169.621094 6.976562 172.53125 C 6.761719 175.441406 6.617188 178.359375 6.542969 181.277344 C 6.464844 184.195312 6.460938 187.113281 6.523438 190.03125 C 6.585938 192.949219 6.71875 195.867188 6.921875 198.777344 C 7.125 201.691406 7.398438 204.597656 7.738281 207.496094 C 8.082031 210.394531 8.492188 213.285156 8.96875 216.164062 C 9.449219 219.042969 9.996094 221.910156 10.613281 224.761719 C 11.230469 227.617188 11.914062 230.453125 12.667969 233.273438 C 13.417969 236.097656 14.238281 238.898438 15.125 241.679688 C 16.007812 244.460938 16.960938 247.21875 17.976562 249.957031 C 18.996094 252.691406 20.078125 255.402344 21.222656 258.085938 C 22.371094 260.773438 23.582031 263.429688 24.855469 266.054688 C 26.128906 268.679688 27.464844 271.277344 28.863281 273.839844 C 30.257812 276.402344 31.71875 278.929688 33.234375 281.425781 C 34.753906 283.917969 36.332031 286.375 37.964844 288.792969 C 39.601562 291.210938 41.292969 293.585938 43.042969 295.925781 C 44.792969 298.261719 46.597656 300.554688 48.457031 302.808594 C 50.3125 305.058594 52.226562 307.265625 54.191406 309.421875 C 56.152344 311.582031 58.167969 313.695312 60.234375 315.757812 C 62.296875 317.824219 64.410156 319.835938 66.570312 321.800781 C 68.734375 323.761719 70.941406 325.671875 73.191406 327.527344 C 75.445312 329.386719 77.738281 331.1875 80.078125 332.9375 C 82.414062 334.683594 84.792969 336.375 87.214844 338.011719 C 89.632812 339.644531 92.089844 341.21875 94.582031 342.738281 C 97.078125 344.253906 99.605469 345.710938 102.171875 347.105469 C 104.734375 348.503906 107.332031 349.835938 109.957031 351.109375 C 112.585938 352.378906 115.242188 353.589844 117.925781 354.734375 C 120.613281 355.878906 123.324219 356.960938 126.0625 357.976562 C 128.796875 358.992188 131.558594 359.941406 134.339844 360.828125 C 137.121094 361.710938 139.921875 362.527344 142.746094 363.277344 C 145.566406 364.027344 148.402344 364.710938 151.257812 365.324219 C 154.109375 365.941406 156.976562 366.484375 159.859375 366.964844 C 162.738281 367.441406 165.628906 367.851562 168.527344 368.191406 C 171.425781 368.53125 174.332031 368.800781 177.246094 369.003906 C 180.15625 369.203125 183.074219 369.335938 185.992188 369.394531 C 188.910156 369.457031 191.828125 369.449219 194.746094 369.371094 C 197.664062 369.296875 200.582031 369.148438 203.492188 368.929688 C 206.402344 368.714844 209.308594 368.429688 212.203125 368.074219 C 215.101562 367.71875 217.988281 367.292969 220.867188 366.800781 C 223.746094 366.308594 226.609375 365.746094 229.460938 365.117188 C 232.308594 364.484375 235.144531 363.789062 237.960938 363.023438 C 240.777344 362.257812 243.574219 361.425781 246.351562 360.527344 C 249.128906 359.625 251.882812 358.660156 254.617188 357.632812 C 257.347656 356.601562 260.050781 355.503906 262.730469 354.347656 C 265.410156 353.1875 268.0625 351.964844 270.679688 350.675781 C 273.300781 349.390625 275.890625 348.042969 278.445312 346.632812 C 281.003906 345.222656 283.523438 343.753906 286.011719 342.222656 C 288.496094 340.691406 290.945312 339.105469 293.355469 337.457031 C 295.765625 335.808594 298.136719 334.105469 300.464844 332.34375 C 302.792969 330.585938 305.078125 328.769531 307.320312 326.902344 C 309.5625 325.03125 311.757812 323.109375 313.910156 321.136719 C 316.058594 319.160156 318.160156 317.136719 320.214844 315.0625 C 322.269531 312.988281 324.273438 310.863281 326.226562 308.695312 C 328.175781 306.523438 330.078125 304.308594 331.921875 302.046875 C 333.769531 299.785156 335.5625 297.480469 337.296875 295.136719 C 339.035156 292.789062 340.714844 290.402344 342.335938 287.976562 C 343.960938 285.546875 345.523438 283.082031 347.027344 280.582031 C 348.535156 278.082031 349.976562 275.542969 351.363281 272.972656 C 352.746094 270.402344 354.066406 267.800781 355.328125 265.167969 C 356.585938 262.535156 357.78125 259.871094 358.914062 257.179688 C 360.046875 254.492188 361.113281 251.773438 362.117188 249.03125 C 363.121094 246.292969 364.054688 243.527344 364.925781 240.742188 C 365.796875 237.953125 366.601562 235.148438 367.339844 232.324219 C 368.074219 229.5 368.746094 226.65625 369.34375 223.800781 C 369.945312 220.945312 370.480469 218.074219 370.941406 215.191406 C 371.40625 212.3125 371.800781 209.417969 372.128906 206.519531 C 372.453125 203.617188 372.710938 200.710938 372.898438 197.796875 C 373.085938 194.882812 373.203125 191.96875 373.25 189.046875 C 373.296875 186.128906 373.277344 183.210938 373.183594 180.292969 C 373.09375 177.375 372.933594 174.460938 372.703125 171.550781 C 372.472656 168.640625 372.171875 165.738281 371.800781 162.839844 C 371.433594 159.945312 370.996094 157.058594 370.488281 154.183594 C 369.980469 151.308594 369.40625 148.449219 368.761719 145.601562 C 368.117188 142.753906 367.40625 139.921875 366.628906 137.109375 C 365.847656 134.296875 365.003906 131.503906 364.089844 128.730469 C 363.179688 125.957031 362.199219 123.207031 361.15625 120.480469 C 360.113281 117.753906 359.003906 115.054688 357.832031 112.382812 C 356.660156 109.707031 355.425781 107.0625 354.125 104.449219 C 352.828125 101.835938 351.464844 99.253906 350.042969 96.703125 C 348.621094 94.152344 347.140625 91.640625 345.597656 89.160156 C 344.054688 86.683594 342.457031 84.242188 340.796875 81.839844 C 339.136719 79.4375 337.421875 77.074219 335.652344 74.753906 C 333.878906 72.433594 332.054688 70.15625 330.175781 67.925781 C 328.292969 65.691406 326.363281 63.503906 324.375 61.363281 C 322.390625 59.222656 320.359375 57.128906 318.273438 55.085938 C 316.1875 53.042969 314.054688 51.050781 311.875 49.105469 C 309.695312 47.164062 307.472656 45.277344 305.203125 43.441406 C 302.933594 41.605469 300.621094 39.824219 298.265625 38.097656 C 295.910156 36.375 293.515625 34.707031 291.082031 33.09375 C 288.644531 31.484375 286.175781 29.929688 283.664062 28.4375 C 281.15625 26.945312 278.613281 25.511719 276.039062 24.140625 C 273.460938 22.769531 270.851562 21.460938 268.210938 20.214844 C 265.574219 18.96875 262.90625 17.785156 260.207031 16.664062 C 257.511719 15.546875 254.792969 14.492188 252.042969 13.5 C 249.296875 12.511719 246.53125 11.589844 243.738281 10.730469 C 240.949219 9.875 238.140625 9.082031 235.3125 8.359375 C 232.480469 7.636719 229.636719 6.980469 226.777344 6.394531 C 223.917969 5.804688 221.046875 5.289062 218.164062 4.835938 C 215.277344 4.386719 212.382812 4.007812 209.480469 3.695312 C 206.578125 3.382812 203.671875 3.140625 200.757812 2.964844 Z M 199.445312 25.058594 C 202.007812 25.210938 204.566406 25.421875 207.117188 25.699219 C 209.671875 25.972656 212.214844 26.308594 214.753906 26.703125 C 217.289062 27.097656 219.816406 27.554688 222.328125 28.070312 C 224.84375 28.589844 227.347656 29.164062 229.832031 29.800781 C 232.320312 30.4375 234.792969 31.132812 237.246094 31.886719 C 239.699219 32.640625 242.132812 33.453125 244.550781 34.324219 C 246.964844 35.191406 249.359375 36.121094 251.730469 37.105469 C 254.101562 38.089844 256.445312 39.128906 258.769531 40.226562 C 261.089844 41.324219 263.382812 42.472656 265.648438 43.679688 C 267.914062 44.886719 270.152344 46.144531 272.359375 47.460938 C 274.566406 48.773438 276.738281 50.136719 278.878906 51.554688 C 281.019531 52.96875 283.125 54.4375 285.199219 55.953125 C 287.269531 57.472656 289.300781 59.039062 291.296875 60.652344 C 293.292969 62.265625 295.25 63.929688 297.167969 65.636719 C 299.085938 67.34375 300.960938 69.097656 302.792969 70.894531 C 304.625 72.691406 306.414062 74.53125 308.160156 76.414062 C 309.90625 78.296875 311.605469 80.21875 313.257812 82.183594 C 314.914062 84.148438 316.519531 86.152344 318.078125 88.191406 C 319.632812 90.230469 321.140625 92.308594 322.601562 94.421875 C 324.058594 96.535156 325.46875 98.679688 326.824219 100.859375 C 328.179688 103.039062 329.484375 105.25 330.734375 107.492188 C 331.984375 109.734375 333.179688 112.007812 334.324219 114.304688 C 335.464844 116.605469 336.550781 118.929688 337.582031 121.28125 C 338.613281 123.632812 339.589844 126.007812 340.507812 128.40625 C 341.425781 130.800781 342.285156 133.21875 343.085938 135.660156 C 343.886719 138.097656 344.632812 140.554688 345.316406 143.027344 C 346.003906 145.503906 346.628906 147.992188 347.195312 150.496094 C 347.761719 153 348.265625 155.515625 348.710938 158.046875 C 349.15625 160.574219 349.542969 163.109375 349.867188 165.65625 C 350.191406 168.203125 350.457031 170.757812 350.660156 173.316406 C 350.863281 175.875 351.003906 178.4375 351.085938 181.003906 C 351.164062 183.570312 351.183594 186.136719 351.140625 188.703125 C 351.097656 191.273438 350.996094 193.835938 350.832031 196.398438 C 350.667969 198.960938 350.441406 201.515625 350.15625 204.070312 C 349.867188 206.621094 349.519531 209.164062 349.113281 211.699219 C 348.703125 214.230469 348.234375 216.753906 347.707031 219.269531 C 347.179688 221.78125 346.589844 224.277344 345.941406 226.761719 C 345.292969 229.246094 344.589844 231.714844 343.820312 234.164062 C 343.054688 236.617188 342.234375 239.046875 341.351562 241.457031 C 340.46875 243.867188 339.53125 246.257812 338.535156 248.625 C 337.539062 250.988281 336.488281 253.332031 335.378906 255.648438 C 334.269531 257.964844 333.109375 260.25 331.890625 262.511719 C 330.675781 264.773438 329.40625 267.003906 328.082031 269.203125 C 326.757812 271.402344 325.382812 273.570312 323.957031 275.703125 C 322.527344 277.839844 321.050781 279.9375 319.523438 282 C 317.996094 284.066406 316.421875 286.089844 314.796875 288.078125 C 313.171875 290.066406 311.503906 292.015625 309.785156 293.925781 C 308.070312 295.832031 306.308594 297.699219 304.5 299.523438 C 302.695312 301.351562 300.847656 303.128906 298.957031 304.867188 C 297.0625 306.601562 295.132812 308.292969 293.160156 309.9375 C 291.1875 311.582031 289.179688 313.175781 287.132812 314.726562 C 285.082031 316.273438 283 317.773438 280.878906 319.21875 C 278.757812 320.667969 276.605469 322.066406 274.421875 323.410156 C 272.234375 324.757812 270.015625 326.050781 267.769531 327.289062 C 265.519531 328.53125 263.242188 329.714844 260.9375 330.847656 C 258.632812 331.976562 256.304688 333.054688 253.949219 334.074219 C 251.59375 335.09375 249.214844 336.054688 246.8125 336.960938 C 244.410156 337.867188 241.988281 338.71875 239.542969 339.507812 C 237.101562 340.296875 234.640625 341.03125 232.164062 341.703125 C 229.6875 342.375 227.195312 342.988281 224.6875 343.542969 C 222.179688 344.097656 219.660156 344.59375 217.132812 345.027344 C 214.601562 345.460938 212.0625 345.832031 209.511719 346.144531 C 206.964844 346.457031 204.410156 346.710938 201.851562 346.898438 C 199.289062 347.089844 196.726562 347.21875 194.160156 347.289062 C 191.59375 347.355469 189.027344 347.363281 186.460938 347.308594 C 183.894531 347.253906 181.328125 347.140625 178.769531 346.960938 C 176.207031 346.785156 173.652344 346.546875 171.101562 346.25 C 168.550781 345.949219 166.011719 345.589844 163.476562 345.171875 C 160.945312 344.75 158.425781 344.269531 155.914062 343.730469 C 153.40625 343.1875 150.910156 342.585938 148.429688 341.929688 C 145.945312 341.269531 143.484375 340.550781 141.035156 339.773438 C 138.589844 338.996094 136.164062 338.160156 133.753906 337.265625 C 131.347656 336.371094 128.964844 335.421875 126.601562 334.414062 C 124.242188 333.40625 121.90625 332.34375 119.59375 331.226562 C 117.285156 330.105469 115 328.933594 112.746094 327.707031 C 110.492188 326.476562 108.265625 325.199219 106.074219 323.863281 C 103.878906 322.53125 101.71875 321.144531 99.59375 319.707031 C 97.464844 318.269531 95.371094 316.78125 93.316406 315.246094 C 91.261719 313.707031 89.242188 312.125 87.261719 310.488281 C 85.28125 308.855469 83.339844 307.175781 81.4375 305.449219 C 79.539062 303.722656 77.679688 301.953125 75.863281 300.140625 C 74.046875 298.324219 72.277344 296.46875 70.550781 294.566406 C 68.824219 292.667969 67.140625 290.726562 65.507812 288.75 C 63.871094 286.769531 62.285156 284.75 60.746094 282.695312 C 59.210938 280.640625 57.722656 278.550781 56.28125 276.421875 C 54.84375 274.296875 53.457031 272.136719 52.121094 269.945312 C 50.785156 267.75 49.503906 265.527344 48.277344 263.273438 C 47.046875 261.019531 45.871094 258.738281 44.75 256.425781 C 43.632812 254.117188 42.566406 251.78125 41.558594 249.421875 C 40.550781 247.058594 39.597656 244.675781 38.703125 242.269531 C 37.808594 239.863281 36.972656 237.4375 36.191406 234.992188 C 35.414062 232.542969 34.695312 230.082031 34.03125 227.601562 C 33.371094 225.117188 32.769531 222.625 32.226562 220.113281 C 31.6875 217.605469 31.203125 215.085938 30.78125 212.550781 C 30.359375 210.019531 30 207.476562 29.699219 204.929688 C 29.398438 202.378906 29.160156 199.824219 28.980469 197.261719 C 28.804688 194.699219 28.6875 192.136719 28.628906 189.570312 C 28.574219 187.003906 28.578125 184.4375 28.644531 181.871094 C 28.710938 179.304688 28.839844 176.742188 29.03125 174.179688 C 29.21875 171.621094 29.46875 169.066406 29.78125 166.515625 C 30.089844 163.96875 30.464844 161.429688 30.894531 158.898438 C 31.328125 156.367188 31.820312 153.847656 32.371094 151.339844 C 32.925781 148.835938 33.539062 146.339844 34.210938 143.863281 C 34.882812 141.386719 35.613281 138.925781 36.402344 136.480469 C 37.191406 134.039062 38.035156 131.617188 38.941406 129.214844 C 39.847656 126.8125 40.808594 124.429688 41.828125 122.074219 C 42.84375 119.71875 43.917969 117.386719 45.050781 115.082031 C 46.179688 112.777344 47.363281 110.5 48.601562 108.25 C 49.839844 106 51.132812 103.785156 52.476562 101.597656 C 53.820312 99.410156 55.21875 97.253906 56.664062 95.136719 C 58.113281 93.015625 59.609375 90.929688 61.15625 88.878906 C 62.703125 86.832031 64.296875 84.820312 65.941406 82.847656 C 67.582031 80.875 69.273438 78.941406 71.007812 77.050781 C 72.742188 75.160156 74.523438 73.308594 76.34375 71.5 C 78.167969 69.695312 80.035156 67.933594 81.941406 66.214844 C 83.851562 64.496094 85.796875 62.824219 87.785156 61.199219 C 89.773438 59.574219 91.796875 57.996094 93.859375 56.46875 C 95.921875 54.941406 98.023438 53.460938 100.15625 52.035156 C 102.289062 50.605469 104.457031 49.230469 106.652344 47.902344 C 108.851562 46.578125 111.082031 45.308594 113.34375 44.089844 C 115.601562 42.871094 117.890625 41.707031 120.207031 40.597656 C 122.519531 39.488281 124.863281 38.4375 127.226562 37.4375 C 129.59375 36.441406 131.980469 35.5 134.390625 34.617188 C 136.804688 33.734375 139.234375 32.910156 141.683594 32.144531 C 144.132812 31.375 146.601562 30.667969 149.085938 30.019531 C 151.566406 29.367188 154.066406 28.777344 156.578125 28.25 C 159.089844 27.71875 161.613281 27.25 164.148438 26.839844 C 166.683594 26.429688 169.226562 26.082031 171.777344 25.792969 Z M 199.445312 25.058594 "/></g><path style=" stroke:none;fill-rule:evenodd;fill:#9333ea;fill-opacity:1;" d="M 192.105469 168.628906 C 193.097656 168.6875 194.078125 168.84375 195.042969 169.089844 C 196.011719 169.335938 196.945312 169.671875 197.84375 170.097656 C 198.746094 170.523438 199.597656 171.03125 200.402344 171.621094 C 201.207031 172.207031 201.945312 172.867188 202.625 173.601562 C 203.300781 174.332031 203.90625 175.121094 204.429688 175.964844 C 204.957031 176.8125 205.398438 177.699219 205.753906 178.632812 C 206.109375 179.5625 206.375 180.519531 206.550781 181.5 C 206.722656 182.480469 206.800781 183.46875 206.785156 184.464844 C 206.769531 185.464844 206.65625 186.449219 206.453125 187.425781 C 206.246094 188.398438 205.949219 189.347656 205.5625 190.265625 C 205.175781 191.183594 204.707031 192.058594 204.152344 192.886719 C 203.597656 193.714844 202.972656 194.484375 202.269531 195.191406 C 201.570312 195.898438 200.808594 196.535156 199.984375 197.097656 C 199.160156 197.660156 198.292969 198.140625 197.378906 198.535156 C 196.464844 198.929688 195.519531 199.234375 194.546875 199.453125 C 193.574219 199.667969 192.589844 199.785156 191.59375 199.8125 C 190.597656 199.839844 189.605469 199.773438 188.625 199.609375 C 187.640625 199.445312 186.679688 199.191406 185.746094 198.84375 C 184.8125 198.496094 183.917969 198.066406 183.066406 197.546875 C 182.214844 197.027344 181.421875 196.433594 180.683594 195.765625 C 179.945312 195.09375 179.277344 194.359375 178.679688 193.5625 C 178.085938 192.765625 177.570312 191.917969 177.132812 191.019531 C 176.699219 190.125 176.351562 189.195312 176.097656 188.230469 C 175.839844 187.269531 175.675781 186.289062 175.605469 185.292969 C 175.539062 184.300781 175.5625 183.308594 175.683594 182.320312 C 175.804688 181.332031 176.019531 180.359375 176.324219 179.414062 C 176.632812 178.464844 177.023438 177.554688 177.507812 176.679688 C 177.988281 175.808594 178.546875 174.988281 179.183594 174.222656 C 179.820312 173.457031 180.527344 172.757812 181.296875 172.128906 C 182.070312 171.496094 182.894531 170.945312 183.769531 170.472656 C 184.648438 170 185.5625 169.613281 186.515625 169.316406 C 187.464844 169.019531 188.4375 168.8125 189.425781 168.699219 "/><path style=" stroke:none;fill-rule:evenodd;fill:#9333ea;fill-opacity:1;" d="M 191.179688 52.09375 C 191.605469 52.09375 192.027344 52.136719 192.445312 52.21875 C 192.867188 52.304688 193.273438 52.425781 193.667969 52.589844 C 194.0625 52.753906 194.4375 52.953125 194.792969 53.191406 C 195.148438 53.429688 195.476562 53.699219 195.777344 54 C 196.078125 54.300781 196.347656 54.628906 196.585938 54.984375 C 196.824219 55.339844 197.023438 55.714844 197.1875 56.109375 C 197.351562 56.503906 197.472656 56.910156 197.558594 57.332031 C 197.640625 57.75 197.683594 58.171875 197.683594 58.597656 L 197.683594 174.578125 C 197.683594 175.003906 197.640625 175.425781 197.558594 175.84375 C 197.472656 176.265625 197.351562 176.671875 197.1875 177.066406 C 197.023438 177.460938 196.824219 177.835938 196.585938 178.191406 C 196.347656 178.542969 196.078125 178.875 195.777344 179.175781 C 195.476562 179.476562 195.148438 179.746094 194.792969 179.984375 C 194.4375 180.222656 194.0625 180.421875 193.667969 180.585938 C 193.273438 180.75 192.867188 180.871094 192.445312 180.957031 C 192.027344 181.039062 191.605469 181.078125 191.179688 181.082031 C 190.75 181.078125 190.328125 181.039062 189.910156 180.957031 C 189.492188 180.871094 189.082031 180.75 188.6875 180.585938 C 188.292969 180.421875 187.917969 180.222656 187.566406 179.984375 C 187.210938 179.746094 186.882812 179.476562 186.578125 179.175781 C 186.277344 178.875 186.007812 178.542969 185.769531 178.191406 C 185.53125 177.835938 185.332031 177.460938 185.167969 177.066406 C 185.007812 176.671875 184.882812 176.265625 184.800781 175.84375 C 184.714844 175.425781 184.675781 175.003906 184.675781 174.578125 L 184.675781 58.597656 C 184.675781 58.171875 184.714844 57.75 184.800781 57.332031 C 184.882812 56.910156 185.007812 56.503906 185.167969 56.109375 C 185.332031 55.714844 185.53125 55.339844 185.769531 54.984375 C 186.007812 54.628906 186.277344 54.300781 186.578125 54 C 186.882812 53.699219 187.210938 53.429688 187.566406 53.191406 C 187.917969 52.953125 188.292969 52.753906 188.6875 52.589844 C 189.082031 52.425781 189.492188 52.304688 189.910156 52.21875 C 190.328125 52.136719 190.75 52.09375 191.179688 52.09375 Z M 191.179688 52.09375 "/></g></svg>